<mxfile modified="2021-05-12T17:36:20.136Z" host="app.diagrams.net" agent="5.0 (Macintosh; Intel Mac OS X 10_15_6) AppleWebKit/605.1.15 (KHTML, like Gecko) Version/14.0.3 Safari/605.1.15" etag="PBkx7bgAJM9zNEeZ4IPa" version="14.6.12" type="github" pages="2">
  <diagram id="Ht1M8jgEwFfnCIfOTk4-" name="Page-1">
    <mxGraphModel dx="2551" dy="2286" grid="1" gridSize="10" guides="1" tooltips="1" connect="1" arrows="1" fold="1" page="1" pageScale="1" pageWidth="1920" pageHeight="1200" math="0" shadow="0">
      <root>
        <mxCell id="0" />
        <mxCell id="1" parent="0" />
        <mxCell id="cy6ETndcfH0MfywffZtR-1" value="AWS Cloud" style="points=[[0,0],[0.25,0],[0.5,0],[0.75,0],[1,0],[1,0.25],[1,0.5],[1,0.75],[1,1],[0.75,1],[0.5,1],[0.25,1],[0,1],[0,0.75],[0,0.5],[0,0.25]];outlineConnect=0;gradientColor=none;html=1;whiteSpace=wrap;fontSize=12;fontStyle=0;shape=mxgraph.aws4.group;grIcon=mxgraph.aws4.group_aws_cloud_alt;strokeColor=#232F3E;fillColor=none;verticalAlign=top;align=left;spacingLeft=30;fontColor=#232F3E;dashed=0;" vertex="1" parent="1">
          <mxGeometry x="240" y="40" width="1640" height="1120" as="geometry" />
        </mxCell>
        <mxCell id="cy6ETndcfH0MfywffZtR-2" value="Region" style="points=[[0,0],[0.25,0],[0.5,0],[0.75,0],[1,0],[1,0.25],[1,0.5],[1,0.75],[1,1],[0.75,1],[0.5,1],[0.25,1],[0,1],[0,0.75],[0,0.5],[0,0.25]];outlineConnect=0;gradientColor=none;html=1;whiteSpace=wrap;fontSize=12;fontStyle=0;shape=mxgraph.aws4.group;grIcon=mxgraph.aws4.group_region;strokeColor=#147EBA;fillColor=none;verticalAlign=top;align=left;spacingLeft=30;fontColor=#147EBA;dashed=1;" vertex="1" parent="1">
          <mxGeometry x="280" y="80" width="1560" height="500" as="geometry" />
        </mxCell>
        <mxCell id="cy6ETndcfH0MfywffZtR-3" value="VPC" style="points=[[0,0],[0.25,0],[0.5,0],[0.75,0],[1,0],[1,0.25],[1,0.5],[1,0.75],[1,1],[0.75,1],[0.5,1],[0.25,1],[0,1],[0,0.75],[0,0.5],[0,0.25]];outlineConnect=0;gradientColor=none;html=1;whiteSpace=wrap;fontSize=12;fontStyle=0;shape=mxgraph.aws4.group;grIcon=mxgraph.aws4.group_vpc;strokeColor=#248814;fillColor=none;verticalAlign=top;align=left;spacingLeft=30;fontColor=#AAB7B8;dashed=0;" vertex="1" parent="1">
          <mxGeometry x="320" y="120" width="1500" height="440" as="geometry" />
        </mxCell>
        <mxCell id="cy6ETndcfH0MfywffZtR-4" value="Availability Zone" style="fillColor=none;strokeColor=#147EBA;dashed=1;verticalAlign=top;fontStyle=0;fontColor=#147EBA;" vertex="1" parent="1">
          <mxGeometry x="420" y="140" width="1370" height="190" as="geometry" />
        </mxCell>
        <mxCell id="cy6ETndcfH0MfywffZtR-5" value="Private subnet" style="points=[[0,0],[0.25,0],[0.5,0],[0.75,0],[1,0],[1,0.25],[1,0.5],[1,0.75],[1,1],[0.75,1],[0.5,1],[0.25,1],[0,1],[0,0.75],[0,0.5],[0,0.25]];outlineConnect=0;gradientColor=none;html=1;whiteSpace=wrap;fontSize=12;fontStyle=0;shape=mxgraph.aws4.group;grIcon=mxgraph.aws4.group_security_group;grStroke=0;strokeColor=#147EBA;fillColor=#E6F2F8;verticalAlign=top;align=left;spacingLeft=30;fontColor=#147EBA;dashed=0;" vertex="1" parent="1">
          <mxGeometry x="1540" y="170" width="230" height="140" as="geometry" />
        </mxCell>
        <mxCell id="cy6ETndcfH0MfywffZtR-7" value="" style="outlineConnect=0;fontColor=#232F3E;gradientColor=none;fillColor=#5A30B5;strokeColor=none;dashed=0;verticalLabelPosition=bottom;verticalAlign=top;align=center;html=1;fontSize=12;fontStyle=0;aspect=fixed;pointerEvents=1;shape=mxgraph.aws4.internet_gateway;" vertex="1" parent="1">
          <mxGeometry x="290" y="310.5" width="59" height="59" as="geometry" />
        </mxCell>
        <mxCell id="cy6ETndcfH0MfywffZtR-9" value="" style="outlineConnect=0;fontColor=#232F3E;gradientColor=none;fillColor=#5A30B5;strokeColor=none;dashed=0;verticalLabelPosition=bottom;verticalAlign=top;align=center;html=1;fontSize=12;fontStyle=0;aspect=fixed;pointerEvents=1;shape=mxgraph.aws4.application_load_balancer;" vertex="1" parent="1">
          <mxGeometry x="396" y="215.5" width="49" height="49" as="geometry" />
        </mxCell>
        <mxCell id="cy6ETndcfH0MfywffZtR-12" value="Security group" style="fillColor=none;strokeColor=#DD3522;verticalAlign=top;fontStyle=0;fontColor=#DD3522;" vertex="1" parent="1">
          <mxGeometry x="1550" y="200" width="210" height="100" as="geometry" />
        </mxCell>
        <mxCell id="cy6ETndcfH0MfywffZtR-13" value="" style="outlineConnect=0;fontColor=#232F3E;gradientColor=none;fillColor=#3334B9;strokeColor=none;dashed=0;verticalLabelPosition=bottom;verticalAlign=top;align=center;html=1;fontSize=12;fontStyle=0;aspect=fixed;pointerEvents=1;shape=mxgraph.aws4.rds_mysql_instance;" vertex="1" parent="1">
          <mxGeometry x="1625.5" y="229.5" width="59" height="59" as="geometry" />
        </mxCell>
        <mxCell id="cy6ETndcfH0MfywffZtR-23" value="Region" style="points=[[0,0],[0.25,0],[0.5,0],[0.75,0],[1,0],[1,0.25],[1,0.5],[1,0.75],[1,1],[0.75,1],[0.5,1],[0.25,1],[0,1],[0,0.75],[0,0.5],[0,0.25]];outlineConnect=0;gradientColor=none;html=1;whiteSpace=wrap;fontSize=12;fontStyle=0;shape=mxgraph.aws4.group;grIcon=mxgraph.aws4.group_region;strokeColor=#147EBA;fillColor=none;verticalAlign=top;align=left;spacingLeft=30;fontColor=#147EBA;dashed=1;" vertex="1" parent="1">
          <mxGeometry x="280" y="640" width="1560" height="500" as="geometry" />
        </mxCell>
        <mxCell id="cy6ETndcfH0MfywffZtR-24" value="VPC" style="points=[[0,0],[0.25,0],[0.5,0],[0.75,0],[1,0],[1,0.25],[1,0.5],[1,0.75],[1,1],[0.75,1],[0.5,1],[0.25,1],[0,1],[0,0.75],[0,0.5],[0,0.25]];outlineConnect=0;gradientColor=none;html=1;whiteSpace=wrap;fontSize=12;fontStyle=0;shape=mxgraph.aws4.group;grIcon=mxgraph.aws4.group_vpc;strokeColor=#248814;fillColor=none;verticalAlign=top;align=left;spacingLeft=30;fontColor=#AAB7B8;dashed=0;" vertex="1" parent="1">
          <mxGeometry x="320" y="700" width="1500" height="420" as="geometry" />
        </mxCell>
        <mxCell id="cy6ETndcfH0MfywffZtR-28" value="" style="outlineConnect=0;fontColor=#232F3E;gradientColor=none;fillColor=#5A30B5;strokeColor=none;dashed=0;verticalLabelPosition=bottom;verticalAlign=top;align=center;html=1;fontSize=12;fontStyle=0;aspect=fixed;pointerEvents=1;shape=mxgraph.aws4.internet_gateway;" vertex="1" parent="1">
          <mxGeometry x="290" y="810.5" width="59" height="59" as="geometry" />
        </mxCell>
        <mxCell id="cy6ETndcfH0MfywffZtR-33" value="Availability Zone" style="fillColor=none;strokeColor=#147EBA;dashed=1;verticalAlign=top;fontStyle=0;fontColor=#147EBA;" vertex="1" parent="1">
          <mxGeometry x="420" y="350" width="1370" height="190" as="geometry" />
        </mxCell>
        <mxCell id="cy6ETndcfH0MfywffZtR-34" value="Private subnet" style="points=[[0,0],[0.25,0],[0.5,0],[0.75,0],[1,0],[1,0.25],[1,0.5],[1,0.75],[1,1],[0.75,1],[0.5,1],[0.25,1],[0,1],[0,0.75],[0,0.5],[0,0.25]];outlineConnect=0;gradientColor=none;html=1;whiteSpace=wrap;fontSize=12;fontStyle=0;shape=mxgraph.aws4.group;grIcon=mxgraph.aws4.group_security_group;grStroke=0;strokeColor=#147EBA;fillColor=#E6F2F8;verticalAlign=top;align=left;spacingLeft=30;fontColor=#147EBA;dashed=0;" vertex="1" parent="1">
          <mxGeometry x="1120" y="170" width="350" height="150" as="geometry" />
        </mxCell>
        <mxCell id="cy6ETndcfH0MfywffZtR-37" value="&lt;font style=&quot;font-size: 16px&quot;&gt;WEB&lt;/font&gt;" style="text;html=1;strokeColor=none;fillColor=none;align=center;verticalAlign=middle;whiteSpace=wrap;rounded=0;" vertex="1" parent="1">
          <mxGeometry x="1195" y="289.75" width="40" height="20" as="geometry" />
        </mxCell>
        <mxCell id="cy6ETndcfH0MfywffZtR-38" value="&lt;font style=&quot;font-size: 16px&quot;&gt;WAS&lt;/font&gt;" style="text;html=1;strokeColor=none;fillColor=none;align=center;verticalAlign=middle;whiteSpace=wrap;rounded=0;" vertex="1" parent="1">
          <mxGeometry x="1355" y="289.75" width="40" height="20" as="geometry" />
        </mxCell>
        <mxCell id="cy6ETndcfH0MfywffZtR-39" value="Private subnet" style="points=[[0,0],[0.25,0],[0.5,0],[0.75,0],[1,0],[1,0.25],[1,0.5],[1,0.75],[1,1],[0.75,1],[0.5,1],[0.25,1],[0,1],[0,0.75],[0,0.5],[0,0.25]];outlineConnect=0;gradientColor=none;html=1;whiteSpace=wrap;fontSize=12;fontStyle=0;shape=mxgraph.aws4.group;grIcon=mxgraph.aws4.group_security_group;grStroke=0;strokeColor=#147EBA;fillColor=#E6F2F8;verticalAlign=top;align=left;spacingLeft=30;fontColor=#147EBA;dashed=0;" vertex="1" parent="1">
          <mxGeometry x="1120" y="380" width="350" height="150" as="geometry" />
        </mxCell>
        <mxCell id="cy6ETndcfH0MfywffZtR-42" value="&lt;font style=&quot;font-size: 16px&quot;&gt;WEB&lt;/font&gt;" style="text;html=1;strokeColor=none;fillColor=none;align=center;verticalAlign=middle;whiteSpace=wrap;rounded=0;" vertex="1" parent="1">
          <mxGeometry x="1197" y="498.5" width="40" height="20" as="geometry" />
        </mxCell>
        <mxCell id="cy6ETndcfH0MfywffZtR-43" value="&lt;font style=&quot;font-size: 16px&quot;&gt;WAS&lt;/font&gt;" style="text;html=1;strokeColor=none;fillColor=none;align=center;verticalAlign=middle;whiteSpace=wrap;rounded=0;" vertex="1" parent="1">
          <mxGeometry x="1357" y="498.5" width="40" height="20" as="geometry" />
        </mxCell>
        <mxCell id="cy6ETndcfH0MfywffZtR-46" value="Public subnet" style="points=[[0,0],[0.25,0],[0.5,0],[0.75,0],[1,0],[1,0.25],[1,0.5],[1,0.75],[1,1],[0.75,1],[0.5,1],[0.25,1],[0,1],[0,0.75],[0,0.5],[0,0.25]];outlineConnect=0;gradientColor=none;html=1;whiteSpace=wrap;fontSize=12;fontStyle=0;shape=mxgraph.aws4.group;grIcon=mxgraph.aws4.group_security_group;grStroke=0;strokeColor=#248814;fillColor=#E9F3E6;verticalAlign=top;align=left;spacingLeft=30;fontColor=#248814;dashed=0;" vertex="1" parent="1">
          <mxGeometry x="910" y="170" width="190" height="150" as="geometry" />
        </mxCell>
        <mxCell id="cy6ETndcfH0MfywffZtR-47" value="Security group" style="fillColor=none;strokeColor=#DD3522;verticalAlign=top;fontStyle=0;fontColor=#DD3522;" vertex="1" parent="1">
          <mxGeometry x="920" y="199.5" width="170" height="110.5" as="geometry" />
        </mxCell>
        <mxCell id="cy6ETndcfH0MfywffZtR-50" value="" style="outlineConnect=0;fontColor=#232F3E;gradientColor=none;fillColor=#D86613;strokeColor=none;dashed=0;verticalLabelPosition=bottom;verticalAlign=top;align=center;html=1;fontSize=12;fontStyle=0;aspect=fixed;pointerEvents=1;shape=mxgraph.aws4.instance2;" vertex="1" parent="1">
          <mxGeometry x="1320" y="10" width="65.5" height="65.5" as="geometry" />
        </mxCell>
        <mxCell id="cy6ETndcfH0MfywffZtR-51" value="" style="outlineConnect=0;fontColor=#232F3E;gradientColor=none;fillColor=#D86613;strokeColor=none;dashed=0;verticalLabelPosition=bottom;verticalAlign=top;align=center;html=1;fontSize=12;fontStyle=0;aspect=fixed;pointerEvents=1;shape=mxgraph.aws4.instance2;" vertex="1" parent="1">
          <mxGeometry x="972.25" y="223" width="65.5" height="65.5" as="geometry" />
        </mxCell>
        <mxCell id="cy6ETndcfH0MfywffZtR-52" value="" style="outlineConnect=0;fontColor=#232F3E;gradientColor=none;fillColor=#D86613;strokeColor=none;dashed=0;verticalLabelPosition=bottom;verticalAlign=top;align=center;html=1;fontSize=12;fontStyle=0;aspect=fixed;pointerEvents=1;shape=mxgraph.aws4.instance2;" vertex="1" parent="1">
          <mxGeometry x="1182.25" y="223" width="65.5" height="65.5" as="geometry" />
        </mxCell>
        <mxCell id="cy6ETndcfH0MfywffZtR-53" value="" style="outlineConnect=0;fontColor=#232F3E;gradientColor=none;fillColor=#D86613;strokeColor=none;dashed=0;verticalLabelPosition=bottom;verticalAlign=top;align=center;html=1;fontSize=12;fontStyle=0;aspect=fixed;pointerEvents=1;shape=mxgraph.aws4.instance2;" vertex="1" parent="1">
          <mxGeometry x="1342.25" y="223" width="65.5" height="65.5" as="geometry" />
        </mxCell>
        <mxCell id="cy6ETndcfH0MfywffZtR-54" value="" style="outlineConnect=0;fontColor=#232F3E;gradientColor=none;fillColor=#D86613;strokeColor=none;dashed=0;verticalLabelPosition=bottom;verticalAlign=top;align=center;html=1;fontSize=12;fontStyle=0;aspect=fixed;pointerEvents=1;shape=mxgraph.aws4.instance2;" vertex="1" parent="1">
          <mxGeometry x="1182.25" y="427.13" width="65.5" height="65.5" as="geometry" />
        </mxCell>
        <mxCell id="cy6ETndcfH0MfywffZtR-55" value="" style="outlineConnect=0;fontColor=#232F3E;gradientColor=none;fillColor=#D86613;strokeColor=none;dashed=0;verticalLabelPosition=bottom;verticalAlign=top;align=center;html=1;fontSize=12;fontStyle=0;aspect=fixed;pointerEvents=1;shape=mxgraph.aws4.instance2;" vertex="1" parent="1">
          <mxGeometry x="1342.25" y="429.38" width="65.5" height="65.5" as="geometry" />
        </mxCell>
        <mxCell id="cy6ETndcfH0MfywffZtR-56" value="&lt;font size=&quot;3&quot;&gt;BastionHost&lt;/font&gt;" style="text;html=1;strokeColor=none;fillColor=none;align=center;verticalAlign=middle;whiteSpace=wrap;rounded=0;" vertex="1" parent="1">
          <mxGeometry x="957.5" y="289.75" width="95" height="20" as="geometry" />
        </mxCell>
        <mxCell id="cy6ETndcfH0MfywffZtR-57" value="Security group" style="fillColor=none;strokeColor=#DD3522;verticalAlign=top;fontStyle=0;fontColor=#DD3522;" vertex="1" parent="1">
          <mxGeometry x="1150" y="200" width="310" height="320" as="geometry" />
        </mxCell>
      </root>
    </mxGraphModel>
  </diagram>
  <diagram id="iWDcbCsNbG89AnMKR7Va" name="Page-2">
    <mxGraphModel dx="1488" dy="1333" grid="1" gridSize="10" guides="1" tooltips="1" connect="1" arrows="1" fold="1" page="1" pageScale="1" pageWidth="1920" pageHeight="1200" math="0" shadow="0">
      <root>
        <mxCell id="XeVW6aaBt2hBlzPnMe3L-0" />
        <mxCell id="XeVW6aaBt2hBlzPnMe3L-1" parent="XeVW6aaBt2hBlzPnMe3L-0" />
        <mxCell id="xAv5uIki-PpR82j_W4D4-0" value="AWS Cloud" style="points=[[0,0],[0.25,0],[0.5,0],[0.75,0],[1,0],[1,0.25],[1,0.5],[1,0.75],[1,1],[0.75,1],[0.5,1],[0.25,1],[0,1],[0,0.75],[0,0.5],[0,0.25]];outlineConnect=0;gradientColor=none;html=1;whiteSpace=wrap;fontSize=12;fontStyle=0;shape=mxgraph.aws4.group;grIcon=mxgraph.aws4.group_aws_cloud_alt;strokeColor=#232F3E;fillColor=none;verticalAlign=top;align=left;spacingLeft=30;fontColor=#232F3E;dashed=0;" vertex="1" parent="XeVW6aaBt2hBlzPnMe3L-1">
          <mxGeometry x="240" y="40" width="800" height="1090" as="geometry" />
        </mxCell>
        <mxCell id="xAv5uIki-PpR82j_W4D4-1" value="Region" style="points=[[0,0],[0.25,0],[0.5,0],[0.75,0],[1,0],[1,0.25],[1,0.5],[1,0.75],[1,1],[0.75,1],[0.5,1],[0.25,1],[0,1],[0,0.75],[0,0.5],[0,0.25]];outlineConnect=0;gradientColor=none;html=1;whiteSpace=wrap;fontSize=12;fontStyle=0;shape=mxgraph.aws4.group;grIcon=mxgraph.aws4.group_region;strokeColor=#147EBA;fillColor=none;verticalAlign=top;align=left;spacingLeft=30;fontColor=#147EBA;dashed=1;" vertex="1" parent="XeVW6aaBt2hBlzPnMe3L-1">
          <mxGeometry x="260" y="70" width="760" height="1050" as="geometry" />
        </mxCell>
        <mxCell id="xAv5uIki-PpR82j_W4D4-2" value="VPC" style="points=[[0,0],[0.25,0],[0.5,0],[0.75,0],[1,0],[1,0.25],[1,0.5],[1,0.75],[1,1],[0.75,1],[0.5,1],[0.25,1],[0,1],[0,0.75],[0,0.5],[0,0.25]];outlineConnect=0;gradientColor=none;html=1;whiteSpace=wrap;fontSize=12;fontStyle=0;shape=mxgraph.aws4.group;grIcon=mxgraph.aws4.group_vpc;strokeColor=#248814;fillColor=none;verticalAlign=top;align=left;spacingLeft=30;fontColor=#AAB7B8;dashed=0;" vertex="1" parent="XeVW6aaBt2hBlzPnMe3L-1">
          <mxGeometry x="280" y="110" width="720" height="990" as="geometry" />
        </mxCell>
        <mxCell id="htYIkZqDp2M51uO-s64P-0" value="Availability Zone 2" style="fillColor=none;strokeColor=#147EBA;dashed=1;verticalAlign=top;fontStyle=0;fontColor=#147EBA;" vertex="1" parent="XeVW6aaBt2hBlzPnMe3L-1">
          <mxGeometry x="720" y="150" width="260" height="830" as="geometry" />
        </mxCell>
        <mxCell id="htYIkZqDp2M51uO-s64P-27" value="Private subnet" style="points=[[0,0],[0.25,0],[0.5,0],[0.75,0],[1,0],[1,0.25],[1,0.5],[1,0.75],[1,1],[0.75,1],[0.5,1],[0.25,1],[0,1],[0,0.75],[0,0.5],[0,0.25]];outlineConnect=0;gradientColor=none;html=1;whiteSpace=wrap;fontSize=12;fontStyle=0;shape=mxgraph.aws4.group;grIcon=mxgraph.aws4.group_security_group;grStroke=0;strokeColor=#147EBA;fillColor=#E6F2F8;verticalAlign=top;align=left;spacingLeft=30;fontColor=#147EBA;dashed=0;" vertex="1" parent="XeVW6aaBt2hBlzPnMe3L-1">
          <mxGeometry x="730" y="590" width="240" height="170" as="geometry" />
        </mxCell>
        <mxCell id="xAv5uIki-PpR82j_W4D4-3" value="Availability Zone 1" style="fillColor=none;strokeColor=#147EBA;dashed=1;verticalAlign=top;fontStyle=0;fontColor=#147EBA;" vertex="1" parent="XeVW6aaBt2hBlzPnMe3L-1">
          <mxGeometry x="370" y="150" width="260" height="830" as="geometry" />
        </mxCell>
        <mxCell id="xAv5uIki-PpR82j_W4D4-19" value="Public subnet" style="points=[[0,0],[0.25,0],[0.5,0],[0.75,0],[1,0],[1,0.25],[1,0.5],[1,0.75],[1,1],[0.75,1],[0.5,1],[0.25,1],[0,1],[0,0.75],[0,0.5],[0,0.25]];outlineConnect=0;gradientColor=none;html=1;whiteSpace=wrap;fontSize=12;fontStyle=0;shape=mxgraph.aws4.group;grIcon=mxgraph.aws4.group_security_group;grStroke=0;strokeColor=#248814;fillColor=#E9F3E6;verticalAlign=top;align=left;spacingLeft=30;fontColor=#248814;dashed=0;" vertex="1" parent="XeVW6aaBt2hBlzPnMe3L-1">
          <mxGeometry x="380" y="190" width="240" height="150" as="geometry" />
        </mxCell>
        <mxCell id="xAv5uIki-PpR82j_W4D4-20" value="Security group" style="fillColor=none;strokeColor=#DD3522;verticalAlign=top;fontStyle=0;fontColor=#DD3522;fontSize=11;" vertex="1" parent="XeVW6aaBt2hBlzPnMe3L-1">
          <mxGeometry x="390" y="219.5" width="220" height="110.5" as="geometry" />
        </mxCell>
        <mxCell id="xAv5uIki-PpR82j_W4D4-22" value="" style="outlineConnect=0;fontColor=#232F3E;gradientColor=none;fillColor=#D86613;strokeColor=none;dashed=0;verticalLabelPosition=bottom;verticalAlign=top;align=center;html=1;fontSize=12;fontStyle=0;aspect=fixed;pointerEvents=1;shape=mxgraph.aws4.instance2;" vertex="1" parent="XeVW6aaBt2hBlzPnMe3L-1">
          <mxGeometry x="470.88" y="247.25" width="55" height="55" as="geometry" />
        </mxCell>
        <mxCell id="xAv5uIki-PpR82j_W4D4-27" value="&lt;font size=&quot;3&quot;&gt;Bastion Host&lt;/font&gt;" style="text;html=1;strokeColor=none;fillColor=none;align=center;verticalAlign=middle;whiteSpace=wrap;rounded=0;" vertex="1" parent="XeVW6aaBt2hBlzPnMe3L-1">
          <mxGeometry x="452.5" y="310" width="95" height="20" as="geometry" />
        </mxCell>
        <mxCell id="htYIkZqDp2M51uO-s64P-1" value="Public subnet" style="points=[[0,0],[0.25,0],[0.5,0],[0.75,0],[1,0],[1,0.25],[1,0.5],[1,0.75],[1,1],[0.75,1],[0.5,1],[0.25,1],[0,1],[0,0.75],[0,0.5],[0,0.25]];outlineConnect=0;gradientColor=none;html=1;whiteSpace=wrap;fontSize=12;fontStyle=0;shape=mxgraph.aws4.group;grIcon=mxgraph.aws4.group_security_group;grStroke=0;strokeColor=#248814;fillColor=#E9F3E6;verticalAlign=top;align=left;spacingLeft=30;fontColor=#248814;dashed=0;" vertex="1" parent="XeVW6aaBt2hBlzPnMe3L-1">
          <mxGeometry x="380" y="380" width="240" height="170" as="geometry" />
        </mxCell>
        <mxCell id="htYIkZqDp2M51uO-s64P-2" value="&lt;font style=&quot;font-size: 16px&quot;&gt;WEB&lt;/font&gt;" style="text;html=1;strokeColor=none;fillColor=none;align=center;verticalAlign=middle;whiteSpace=wrap;rounded=0;" vertex="1" parent="XeVW6aaBt2hBlzPnMe3L-1">
          <mxGeometry x="423.38" y="510" width="40" height="20" as="geometry" />
        </mxCell>
        <mxCell id="htYIkZqDp2M51uO-s64P-3" value="" style="outlineConnect=0;fontColor=#232F3E;gradientColor=none;fillColor=#D86613;strokeColor=none;dashed=0;verticalLabelPosition=bottom;verticalAlign=top;align=center;html=1;fontSize=12;fontStyle=0;aspect=fixed;pointerEvents=1;shape=mxgraph.aws4.instance2;" vertex="1" parent="XeVW6aaBt2hBlzPnMe3L-1">
          <mxGeometry x="415.88" y="445.13" width="55" height="55" as="geometry" />
        </mxCell>
        <mxCell id="htYIkZqDp2M51uO-s64P-4" value="Public subnet" style="points=[[0,0],[0.25,0],[0.5,0],[0.75,0],[1,0],[1,0.25],[1,0.5],[1,0.75],[1,1],[0.75,1],[0.5,1],[0.25,1],[0,1],[0,0.75],[0,0.5],[0,0.25]];outlineConnect=0;gradientColor=none;html=1;whiteSpace=wrap;fontSize=12;fontStyle=0;shape=mxgraph.aws4.group;grIcon=mxgraph.aws4.group_security_group;grStroke=0;strokeColor=#248814;fillColor=#E9F3E6;verticalAlign=top;align=left;spacingLeft=30;fontColor=#248814;dashed=0;" vertex="1" parent="XeVW6aaBt2hBlzPnMe3L-1">
          <mxGeometry x="730" y="380" width="240" height="170" as="geometry" />
        </mxCell>
        <mxCell id="htYIkZqDp2M51uO-s64P-7" value="Security group" style="fillColor=none;strokeColor=#DD3522;verticalAlign=top;fontStyle=0;fontColor=#DD3522;fontSize=11;" vertex="1" parent="XeVW6aaBt2hBlzPnMe3L-1">
          <mxGeometry x="390" y="410" width="570" height="130" as="geometry" />
        </mxCell>
        <mxCell id="htYIkZqDp2M51uO-s64P-9" value="&lt;font style=&quot;font-size: 11px&quot;&gt;Auto Scaling group&lt;/font&gt;" style="points=[[0,0],[0.25,0],[0.5,0],[0.75,0],[1,0],[1,0.25],[1,0.5],[1,0.75],[1,1],[0.75,1],[0.5,1],[0.25,1],[0,1],[0,0.75],[0,0.5],[0,0.25]];outlineConnect=0;gradientColor=none;html=1;whiteSpace=wrap;fontSize=12;fontStyle=0;shape=mxgraph.aws4.groupCenter;grIcon=mxgraph.aws4.group_auto_scaling_group;grStroke=1;strokeColor=#D86613;fillColor=none;verticalAlign=top;align=center;fontColor=#D86613;dashed=1;spacingTop=25;" vertex="1" parent="XeVW6aaBt2hBlzPnMe3L-1">
          <mxGeometry x="500" y="440" width="350" height="90" as="geometry" />
        </mxCell>
        <mxCell id="htYIkZqDp2M51uO-s64P-10" value="&lt;font style=&quot;font-size: 11px;&quot;&gt;AutoScaling&lt;br style=&quot;font-size: 11px;&quot;&gt;Instance&lt;br style=&quot;font-size: 11px;&quot;&gt;&lt;/font&gt;" style="text;html=1;strokeColor=none;fillColor=none;align=center;verticalAlign=middle;whiteSpace=wrap;rounded=0;fontSize=11;spacingTop=-6;" vertex="1" parent="XeVW6aaBt2hBlzPnMe3L-1">
          <mxGeometry x="514.63" y="505" width="97.25" height="30" as="geometry" />
        </mxCell>
        <mxCell id="htYIkZqDp2M51uO-s64P-11" value="" style="outlineConnect=0;fontColor=#232F3E;gradientColor=none;fillColor=#D86613;strokeColor=none;dashed=0;verticalLabelPosition=bottom;verticalAlign=top;align=center;html=1;fontSize=12;fontStyle=0;aspect=fixed;pointerEvents=1;shape=mxgraph.aws4.instance2;" vertex="1" parent="XeVW6aaBt2hBlzPnMe3L-1">
          <mxGeometry x="535.76" y="447.5" width="55" height="55" as="geometry" />
        </mxCell>
        <mxCell id="htYIkZqDp2M51uO-s64P-14" value="&lt;font style=&quot;font-size: 11px;&quot;&gt;AutoScaling&lt;br style=&quot;font-size: 11px;&quot;&gt;Instance&lt;br style=&quot;font-size: 11px;&quot;&gt;&lt;/font&gt;" style="text;html=1;strokeColor=none;fillColor=none;align=center;verticalAlign=middle;whiteSpace=wrap;rounded=0;fontSize=11;spacingTop=-6;" vertex="1" parent="XeVW6aaBt2hBlzPnMe3L-1">
          <mxGeometry x="730" y="505" width="97.25" height="30" as="geometry" />
        </mxCell>
        <mxCell id="htYIkZqDp2M51uO-s64P-15" value="" style="outlineConnect=0;fontColor=#232F3E;gradientColor=none;fillColor=#D86613;strokeColor=none;dashed=0;verticalLabelPosition=bottom;verticalAlign=top;align=center;html=1;fontSize=12;fontStyle=0;aspect=fixed;pointerEvents=1;shape=mxgraph.aws4.instance2;" vertex="1" parent="XeVW6aaBt2hBlzPnMe3L-1">
          <mxGeometry x="749.25" y="447.5" width="55" height="55" as="geometry" />
        </mxCell>
        <mxCell id="htYIkZqDp2M51uO-s64P-16" value="Private subnet" style="points=[[0,0],[0.25,0],[0.5,0],[0.75,0],[1,0],[1,0.25],[1,0.5],[1,0.75],[1,1],[0.75,1],[0.5,1],[0.25,1],[0,1],[0,0.75],[0,0.5],[0,0.25]];outlineConnect=0;gradientColor=none;html=1;whiteSpace=wrap;fontSize=12;fontStyle=0;shape=mxgraph.aws4.group;grIcon=mxgraph.aws4.group_security_group;grStroke=0;strokeColor=#147EBA;fillColor=#E6F2F8;verticalAlign=top;align=left;spacingLeft=30;fontColor=#147EBA;dashed=0;" vertex="1" parent="XeVW6aaBt2hBlzPnMe3L-1">
          <mxGeometry x="380" y="590" width="240" height="170" as="geometry" />
        </mxCell>
        <mxCell id="htYIkZqDp2M51uO-s64P-18" value="&lt;font style=&quot;font-size: 16px&quot;&gt;WAS&lt;/font&gt;" style="text;html=1;strokeColor=none;fillColor=none;align=center;verticalAlign=middle;whiteSpace=wrap;rounded=0;" vertex="1" parent="XeVW6aaBt2hBlzPnMe3L-1">
          <mxGeometry x="423.38" y="720" width="40" height="20" as="geometry" />
        </mxCell>
        <mxCell id="htYIkZqDp2M51uO-s64P-19" value="" style="outlineConnect=0;fontColor=#232F3E;gradientColor=none;fillColor=#D86613;strokeColor=none;dashed=0;verticalLabelPosition=bottom;verticalAlign=top;align=center;html=1;fontSize=12;fontStyle=0;aspect=fixed;pointerEvents=1;shape=mxgraph.aws4.instance2;" vertex="1" parent="XeVW6aaBt2hBlzPnMe3L-1">
          <mxGeometry x="415.88" y="660" width="55" height="55" as="geometry" />
        </mxCell>
        <mxCell id="htYIkZqDp2M51uO-s64P-20" value="Security group" style="fillColor=none;strokeColor=#DD3522;verticalAlign=top;fontStyle=0;fontColor=#DD3522;fontSize=11;" vertex="1" parent="XeVW6aaBt2hBlzPnMe3L-1">
          <mxGeometry x="390" y="620" width="570" height="130" as="geometry" />
        </mxCell>
        <mxCell id="htYIkZqDp2M51uO-s64P-21" value="&lt;font style=&quot;font-size: 11px&quot;&gt;Auto Scaling group&lt;/font&gt;" style="points=[[0,0],[0.25,0],[0.5,0],[0.75,0],[1,0],[1,0.25],[1,0.5],[1,0.75],[1,1],[0.75,1],[0.5,1],[0.25,1],[0,1],[0,0.75],[0,0.5],[0,0.25]];outlineConnect=0;gradientColor=none;html=1;whiteSpace=wrap;fontSize=12;fontStyle=0;shape=mxgraph.aws4.groupCenter;grIcon=mxgraph.aws4.group_auto_scaling_group;grStroke=1;strokeColor=#D86613;fillColor=none;verticalAlign=top;align=center;fontColor=#D86613;dashed=1;spacingTop=25;" vertex="1" parent="XeVW6aaBt2hBlzPnMe3L-1">
          <mxGeometry x="500" y="650" width="350" height="90" as="geometry" />
        </mxCell>
        <mxCell id="htYIkZqDp2M51uO-s64P-22" value="&lt;font style=&quot;font-size: 11px;&quot;&gt;AutoScaling&lt;br style=&quot;font-size: 11px;&quot;&gt;Instance&lt;br style=&quot;font-size: 11px;&quot;&gt;&lt;/font&gt;" style="text;html=1;strokeColor=none;fillColor=none;align=center;verticalAlign=middle;whiteSpace=wrap;rounded=0;fontSize=11;spacingTop=-6;" vertex="1" parent="XeVW6aaBt2hBlzPnMe3L-1">
          <mxGeometry x="514.63" y="715" width="97.25" height="30" as="geometry" />
        </mxCell>
        <mxCell id="htYIkZqDp2M51uO-s64P-23" value="" style="outlineConnect=0;fontColor=#232F3E;gradientColor=none;fillColor=#D86613;strokeColor=none;dashed=0;verticalLabelPosition=bottom;verticalAlign=top;align=center;html=1;fontSize=12;fontStyle=0;aspect=fixed;pointerEvents=1;shape=mxgraph.aws4.instance2;" vertex="1" parent="XeVW6aaBt2hBlzPnMe3L-1">
          <mxGeometry x="535.76" y="658.5" width="55" height="55" as="geometry" />
        </mxCell>
        <mxCell id="htYIkZqDp2M51uO-s64P-25" value="&lt;font style=&quot;font-size: 11px;&quot;&gt;AutoScaling&lt;br style=&quot;font-size: 11px;&quot;&gt;Instance&lt;br style=&quot;font-size: 11px;&quot;&gt;&lt;/font&gt;" style="text;html=1;strokeColor=none;fillColor=none;align=center;verticalAlign=middle;whiteSpace=wrap;rounded=0;fontSize=11;spacingTop=-6;" vertex="1" parent="XeVW6aaBt2hBlzPnMe3L-1">
          <mxGeometry x="730" y="715" width="97.25" height="30" as="geometry" />
        </mxCell>
        <mxCell id="htYIkZqDp2M51uO-s64P-26" value="" style="outlineConnect=0;fontColor=#232F3E;gradientColor=none;fillColor=#D86613;strokeColor=none;dashed=0;verticalLabelPosition=bottom;verticalAlign=top;align=center;html=1;fontSize=12;fontStyle=0;aspect=fixed;pointerEvents=1;shape=mxgraph.aws4.instance2;" vertex="1" parent="XeVW6aaBt2hBlzPnMe3L-1">
          <mxGeometry x="749.25" y="658.5" width="55" height="55" as="geometry" />
        </mxCell>
        <mxCell id="htYIkZqDp2M51uO-s64P-28" value="Private subnet" style="points=[[0,0],[0.25,0],[0.5,0],[0.75,0],[1,0],[1,0.25],[1,0.5],[1,0.75],[1,1],[0.75,1],[0.5,1],[0.25,1],[0,1],[0,0.75],[0,0.5],[0,0.25]];outlineConnect=0;gradientColor=none;html=1;whiteSpace=wrap;fontSize=12;fontStyle=0;shape=mxgraph.aws4.group;grIcon=mxgraph.aws4.group_security_group;grStroke=0;strokeColor=#147EBA;fillColor=#E6F2F8;verticalAlign=top;align=left;spacingLeft=30;fontColor=#147EBA;dashed=0;" vertex="1" parent="XeVW6aaBt2hBlzPnMe3L-1">
          <mxGeometry x="730" y="800" width="240" height="170" as="geometry" />
        </mxCell>
        <mxCell id="htYIkZqDp2M51uO-s64P-29" value="Private subnet" style="points=[[0,0],[0.25,0],[0.5,0],[0.75,0],[1,0],[1,0.25],[1,0.5],[1,0.75],[1,1],[0.75,1],[0.5,1],[0.25,1],[0,1],[0,0.75],[0,0.5],[0,0.25]];outlineConnect=0;gradientColor=none;html=1;whiteSpace=wrap;fontSize=12;fontStyle=0;shape=mxgraph.aws4.group;grIcon=mxgraph.aws4.group_security_group;grStroke=0;strokeColor=#147EBA;fillColor=#E6F2F8;verticalAlign=top;align=left;spacingLeft=30;fontColor=#147EBA;dashed=0;" vertex="1" parent="XeVW6aaBt2hBlzPnMe3L-1">
          <mxGeometry x="380" y="800" width="240" height="170" as="geometry" />
        </mxCell>
        <mxCell id="htYIkZqDp2M51uO-s64P-31" value="Security group" style="fillColor=none;strokeColor=#DD3522;verticalAlign=top;fontStyle=0;fontColor=#DD3522;fontSize=11;" vertex="1" parent="XeVW6aaBt2hBlzPnMe3L-1">
          <mxGeometry x="390" y="830" width="220" height="130" as="geometry" />
        </mxCell>
        <mxCell id="htYIkZqDp2M51uO-s64P-32" value="Security group" style="fillColor=none;strokeColor=#DD3522;verticalAlign=top;fontStyle=0;fontColor=#DD3522;fontSize=11;" vertex="1" parent="XeVW6aaBt2hBlzPnMe3L-1">
          <mxGeometry x="740" y="830" width="220" height="130" as="geometry" />
        </mxCell>
        <mxCell id="htYIkZqDp2M51uO-s64P-106" style="edgeStyle=orthogonalEdgeStyle;rounded=0;orthogonalLoop=1;jettySize=auto;html=1;fontSize=11;strokeWidth=2;" edge="1" parent="XeVW6aaBt2hBlzPnMe3L-1" source="htYIkZqDp2M51uO-s64P-33" target="htYIkZqDp2M51uO-s64P-43">
          <mxGeometry relative="1" as="geometry" />
        </mxCell>
        <mxCell id="htYIkZqDp2M51uO-s64P-33" value="" style="outlineConnect=0;fontColor=#232F3E;gradientColor=none;fillColor=#3334B9;strokeColor=none;dashed=0;verticalLabelPosition=bottom;verticalAlign=top;align=center;html=1;fontSize=12;fontStyle=0;aspect=fixed;pointerEvents=1;shape=mxgraph.aws4.elasticache_for_redis;" vertex="1" parent="XeVW6aaBt2hBlzPnMe3L-1">
          <mxGeometry x="408.38" y="870.68" width="55" height="48.65" as="geometry" />
        </mxCell>
        <mxCell id="htYIkZqDp2M51uO-s64P-34" value="" style="points=[[0,0,0],[0.25,0,0],[0.5,0,0],[0.75,0,0],[1,0,0],[0,1,0],[0.25,1,0],[0.5,1,0],[0.75,1,0],[1,1,0],[0,0.25,0],[0,0.5,0],[0,0.75,0],[1,0.25,0],[1,0.5,0],[1,0.75,0]];points=[[0,0,0],[0.25,0,0],[0.5,0,0],[0.75,0,0],[1,0,0],[0,1,0],[0.25,1,0],[0.5,1,0],[0.75,1,0],[1,1,0],[0,0.25,0],[0,0.5,0],[0,0.75,0],[1,0.25,0],[1,0.5,0],[1,0.75,0]];outlineConnect=0;fontColor=#232F3E;gradientColor=#F34482;gradientDirection=north;fillColor=#BC1356;strokeColor=#ffffff;dashed=0;verticalLabelPosition=bottom;verticalAlign=top;align=center;html=1;fontSize=12;fontStyle=0;aspect=fixed;shape=mxgraph.aws4.resourceIcon;resIcon=mxgraph.aws4.cloudwatch_2;" vertex="1" parent="XeVW6aaBt2hBlzPnMe3L-1">
          <mxGeometry x="290" y="445.13" width="55" height="55" as="geometry" />
        </mxCell>
        <mxCell id="htYIkZqDp2M51uO-s64P-37" value="" style="outlineConnect=0;fontColor=#232F3E;gradientColor=none;fillColor=#5A30B5;strokeColor=none;dashed=0;verticalLabelPosition=bottom;verticalAlign=top;align=center;html=1;fontSize=12;fontStyle=0;aspect=fixed;pointerEvents=1;shape=mxgraph.aws4.internet_gateway;" vertex="1" parent="XeVW6aaBt2hBlzPnMe3L-1">
          <mxGeometry x="642.5" y="82" width="55" height="55" as="geometry" />
        </mxCell>
        <mxCell id="htYIkZqDp2M51uO-s64P-38" value="" style="outlineConnect=0;fontColor=#232F3E;gradientColor=none;fillColor=#5A30B5;strokeColor=none;dashed=0;verticalLabelPosition=bottom;verticalAlign=top;align=center;html=1;fontSize=12;fontStyle=0;aspect=fixed;pointerEvents=1;shape=mxgraph.aws4.application_load_balancer;" vertex="1" parent="XeVW6aaBt2hBlzPnMe3L-1">
          <mxGeometry x="642.5" y="190" width="55" height="55" as="geometry" />
        </mxCell>
        <mxCell id="htYIkZqDp2M51uO-s64P-41" value="&lt;font size=&quot;3&quot;&gt;Master&lt;/font&gt;" style="text;html=1;strokeColor=none;fillColor=none;align=center;verticalAlign=middle;whiteSpace=wrap;rounded=0;" vertex="1" parent="XeVW6aaBt2hBlzPnMe3L-1">
          <mxGeometry x="505.88" y="930" width="95" height="20" as="geometry" />
        </mxCell>
        <mxCell id="htYIkZqDp2M51uO-s64P-105" style="edgeStyle=orthogonalEdgeStyle;rounded=0;orthogonalLoop=1;jettySize=auto;html=1;fontSize=11;strokeWidth=2;" edge="1" parent="XeVW6aaBt2hBlzPnMe3L-1" source="htYIkZqDp2M51uO-s64P-43" target="htYIkZqDp2M51uO-s64P-44">
          <mxGeometry relative="1" as="geometry" />
        </mxCell>
        <mxCell id="htYIkZqDp2M51uO-s64P-43" value="" style="outlineConnect=0;fontColor=#232F3E;gradientColor=none;fillColor=#3334B9;strokeColor=none;dashed=0;verticalLabelPosition=bottom;verticalAlign=top;align=center;html=1;fontSize=12;fontStyle=0;aspect=fixed;pointerEvents=1;shape=mxgraph.aws4.rds_instance;" vertex="1" parent="XeVW6aaBt2hBlzPnMe3L-1">
          <mxGeometry x="525.88" y="867.505" width="55" height="55" as="geometry" />
        </mxCell>
        <mxCell id="htYIkZqDp2M51uO-s64P-44" value="" style="outlineConnect=0;fontColor=#232F3E;gradientColor=none;fillColor=#3334B9;strokeColor=none;dashed=0;verticalLabelPosition=bottom;verticalAlign=top;align=center;html=1;fontSize=12;fontStyle=0;aspect=fixed;pointerEvents=1;shape=mxgraph.aws4.rds_instance;" vertex="1" parent="XeVW6aaBt2hBlzPnMe3L-1">
          <mxGeometry x="822.5" y="867.5" width="55" height="55" as="geometry" />
        </mxCell>
        <mxCell id="htYIkZqDp2M51uO-s64P-45" value="&lt;font size=&quot;3&quot;&gt;Stand-by&lt;/font&gt;" style="text;html=1;strokeColor=none;fillColor=none;align=center;verticalAlign=middle;whiteSpace=wrap;rounded=0;" vertex="1" parent="XeVW6aaBt2hBlzPnMe3L-1">
          <mxGeometry x="802.5" y="930" width="95" height="20" as="geometry" />
        </mxCell>
        <mxCell id="htYIkZqDp2M51uO-s64P-46" value="&lt;font style=&quot;font-size: 11px&quot;&gt;ElastiCache&lt;br&gt;of Redis&lt;br style=&quot;font-size: 11px&quot;&gt;&lt;/font&gt;" style="text;html=1;strokeColor=none;fillColor=none;align=center;verticalAlign=middle;whiteSpace=wrap;rounded=0;fontSize=11;spacingTop=-6;" vertex="1" parent="XeVW6aaBt2hBlzPnMe3L-1">
          <mxGeometry x="387.26" y="930" width="97.25" height="30" as="geometry" />
        </mxCell>
        <mxCell id="htYIkZqDp2M51uO-s64P-99" style="edgeStyle=orthogonalEdgeStyle;rounded=0;orthogonalLoop=1;jettySize=auto;html=1;fontSize=11;strokeWidth=2;" edge="1" parent="XeVW6aaBt2hBlzPnMe3L-1" source="htYIkZqDp2M51uO-s64P-47" target="htYIkZqDp2M51uO-s64P-94">
          <mxGeometry relative="1" as="geometry" />
        </mxCell>
        <mxCell id="htYIkZqDp2M51uO-s64P-47" value="" style="outlineConnect=0;fontColor=#232F3E;gradientColor=none;fillColor=#277116;strokeColor=none;dashed=0;verticalLabelPosition=bottom;verticalAlign=top;align=center;html=1;fontSize=12;fontStyle=0;aspect=fixed;pointerEvents=1;shape=mxgraph.aws4.bucket_with_objects;" vertex="1" parent="XeVW6aaBt2hBlzPnMe3L-1">
          <mxGeometry x="642.5" y="1000" width="55" height="57.2" as="geometry" />
        </mxCell>
        <mxCell id="htYIkZqDp2M51uO-s64P-48" value="&lt;font size=&quot;3&quot;&gt;S3&lt;/font&gt;" style="text;html=1;strokeColor=none;fillColor=none;align=center;verticalAlign=middle;whiteSpace=wrap;rounded=0;" vertex="1" parent="XeVW6aaBt2hBlzPnMe3L-1">
          <mxGeometry x="622.5" y="1069" width="95" height="20" as="geometry" />
        </mxCell>
        <mxCell id="htYIkZqDp2M51uO-s64P-51" value="AWS Cloud" style="points=[[0,0],[0.25,0],[0.5,0],[0.75,0],[1,0],[1,0.25],[1,0.5],[1,0.75],[1,1],[0.75,1],[0.5,1],[0.25,1],[0,1],[0,0.75],[0,0.5],[0,0.25]];outlineConnect=0;gradientColor=none;html=1;whiteSpace=wrap;fontSize=12;fontStyle=0;shape=mxgraph.aws4.group;grIcon=mxgraph.aws4.group_aws_cloud_alt;strokeColor=#232F3E;fillColor=none;verticalAlign=top;align=left;spacingLeft=30;fontColor=#232F3E;dashed=0;" vertex="1" parent="XeVW6aaBt2hBlzPnMe3L-1">
          <mxGeometry x="1160" y="40" width="730" height="1090" as="geometry" />
        </mxCell>
        <mxCell id="htYIkZqDp2M51uO-s64P-52" value="Region" style="points=[[0,0],[0.25,0],[0.5,0],[0.75,0],[1,0],[1,0.25],[1,0.5],[1,0.75],[1,1],[0.75,1],[0.5,1],[0.25,1],[0,1],[0,0.75],[0,0.5],[0,0.25]];outlineConnect=0;gradientColor=none;html=1;whiteSpace=wrap;fontSize=12;fontStyle=0;shape=mxgraph.aws4.group;grIcon=mxgraph.aws4.group_region;strokeColor=#147EBA;fillColor=none;verticalAlign=top;align=left;spacingLeft=30;fontColor=#147EBA;dashed=1;" vertex="1" parent="XeVW6aaBt2hBlzPnMe3L-1">
          <mxGeometry x="1180" y="70" width="690" height="1050" as="geometry" />
        </mxCell>
        <mxCell id="htYIkZqDp2M51uO-s64P-53" value="VPC" style="points=[[0,0],[0.25,0],[0.5,0],[0.75,0],[1,0],[1,0.25],[1,0.5],[1,0.75],[1,1],[0.75,1],[0.5,1],[0.25,1],[0,1],[0,0.75],[0,0.5],[0,0.25]];outlineConnect=0;gradientColor=none;html=1;whiteSpace=wrap;fontSize=12;fontStyle=0;shape=mxgraph.aws4.group;grIcon=mxgraph.aws4.group_vpc;strokeColor=#248814;fillColor=none;verticalAlign=top;align=left;spacingLeft=30;fontColor=#AAB7B8;dashed=0;" vertex="1" parent="XeVW6aaBt2hBlzPnMe3L-1">
          <mxGeometry x="1200" y="110" width="650" height="990" as="geometry" />
        </mxCell>
        <mxCell id="htYIkZqDp2M51uO-s64P-54" value="Availability Zone" style="fillColor=none;strokeColor=#147EBA;dashed=1;verticalAlign=top;fontStyle=0;fontColor=#147EBA;" vertex="1" parent="XeVW6aaBt2hBlzPnMe3L-1">
          <mxGeometry x="1570" y="150" width="260" height="830" as="geometry" />
        </mxCell>
        <mxCell id="htYIkZqDp2M51uO-s64P-55" value="Private subnet" style="points=[[0,0],[0.25,0],[0.5,0],[0.75,0],[1,0],[1,0.25],[1,0.5],[1,0.75],[1,1],[0.75,1],[0.5,1],[0.25,1],[0,1],[0,0.75],[0,0.5],[0,0.25]];outlineConnect=0;gradientColor=none;html=1;whiteSpace=wrap;fontSize=12;fontStyle=0;shape=mxgraph.aws4.group;grIcon=mxgraph.aws4.group_security_group;grStroke=0;strokeColor=#147EBA;fillColor=#E6F2F8;verticalAlign=top;align=left;spacingLeft=30;fontColor=#147EBA;dashed=0;" vertex="1" parent="XeVW6aaBt2hBlzPnMe3L-1">
          <mxGeometry x="1580" y="590" width="240" height="170" as="geometry" />
        </mxCell>
        <mxCell id="htYIkZqDp2M51uO-s64P-56" value="Availability Zone" style="fillColor=none;strokeColor=#147EBA;dashed=1;verticalAlign=top;fontStyle=0;fontColor=#147EBA;" vertex="1" parent="XeVW6aaBt2hBlzPnMe3L-1">
          <mxGeometry x="1220" y="150" width="260" height="830" as="geometry" />
        </mxCell>
        <mxCell id="htYIkZqDp2M51uO-s64P-57" value="Public subnet" style="points=[[0,0],[0.25,0],[0.5,0],[0.75,0],[1,0],[1,0.25],[1,0.5],[1,0.75],[1,1],[0.75,1],[0.5,1],[0.25,1],[0,1],[0,0.75],[0,0.5],[0,0.25]];outlineConnect=0;gradientColor=none;html=1;whiteSpace=wrap;fontSize=12;fontStyle=0;shape=mxgraph.aws4.group;grIcon=mxgraph.aws4.group_security_group;grStroke=0;strokeColor=#248814;fillColor=#E9F3E6;verticalAlign=top;align=left;spacingLeft=30;fontColor=#248814;dashed=0;" vertex="1" parent="XeVW6aaBt2hBlzPnMe3L-1">
          <mxGeometry x="1230" y="190" width="240" height="150" as="geometry" />
        </mxCell>
        <mxCell id="htYIkZqDp2M51uO-s64P-58" value="Security group" style="fillColor=none;strokeColor=#DD3522;verticalAlign=top;fontStyle=0;fontColor=#DD3522;fontSize=11;" vertex="1" parent="XeVW6aaBt2hBlzPnMe3L-1">
          <mxGeometry x="1240" y="219.5" width="220" height="110.5" as="geometry" />
        </mxCell>
        <mxCell id="htYIkZqDp2M51uO-s64P-59" value="" style="outlineConnect=0;fontColor=#232F3E;gradientColor=none;fillColor=#D86613;strokeColor=none;dashed=0;verticalLabelPosition=bottom;verticalAlign=top;align=center;html=1;fontSize=12;fontStyle=0;aspect=fixed;pointerEvents=1;shape=mxgraph.aws4.instance2;" vertex="1" parent="XeVW6aaBt2hBlzPnMe3L-1">
          <mxGeometry x="1320.88" y="247.25" width="55" height="55" as="geometry" />
        </mxCell>
        <mxCell id="htYIkZqDp2M51uO-s64P-60" value="&lt;font size=&quot;3&quot;&gt;Bastion Host&lt;/font&gt;" style="text;html=1;strokeColor=none;fillColor=none;align=center;verticalAlign=middle;whiteSpace=wrap;rounded=0;" vertex="1" parent="XeVW6aaBt2hBlzPnMe3L-1">
          <mxGeometry x="1302.5" y="310" width="95" height="20" as="geometry" />
        </mxCell>
        <mxCell id="htYIkZqDp2M51uO-s64P-61" value="Public subnet" style="points=[[0,0],[0.25,0],[0.5,0],[0.75,0],[1,0],[1,0.25],[1,0.5],[1,0.75],[1,1],[0.75,1],[0.5,1],[0.25,1],[0,1],[0,0.75],[0,0.5],[0,0.25]];outlineConnect=0;gradientColor=none;html=1;whiteSpace=wrap;fontSize=12;fontStyle=0;shape=mxgraph.aws4.group;grIcon=mxgraph.aws4.group_security_group;grStroke=0;strokeColor=#248814;fillColor=#E9F3E6;verticalAlign=top;align=left;spacingLeft=30;fontColor=#248814;dashed=0;" vertex="1" parent="XeVW6aaBt2hBlzPnMe3L-1">
          <mxGeometry x="1230" y="380" width="240" height="170" as="geometry" />
        </mxCell>
        <mxCell id="htYIkZqDp2M51uO-s64P-62" value="&lt;font style=&quot;font-size: 16px&quot;&gt;WEB&lt;/font&gt;" style="text;html=1;strokeColor=none;fillColor=none;align=center;verticalAlign=middle;whiteSpace=wrap;rounded=0;" vertex="1" parent="XeVW6aaBt2hBlzPnMe3L-1">
          <mxGeometry x="1273.38" y="510" width="40" height="20" as="geometry" />
        </mxCell>
        <mxCell id="htYIkZqDp2M51uO-s64P-63" value="" style="outlineConnect=0;fontColor=#232F3E;gradientColor=none;fillColor=#D86613;strokeColor=none;dashed=0;verticalLabelPosition=bottom;verticalAlign=top;align=center;html=1;fontSize=12;fontStyle=0;aspect=fixed;pointerEvents=1;shape=mxgraph.aws4.instance2;" vertex="1" parent="XeVW6aaBt2hBlzPnMe3L-1">
          <mxGeometry x="1265.88" y="445.13" width="55" height="55" as="geometry" />
        </mxCell>
        <mxCell id="htYIkZqDp2M51uO-s64P-64" value="Public subnet" style="points=[[0,0],[0.25,0],[0.5,0],[0.75,0],[1,0],[1,0.25],[1,0.5],[1,0.75],[1,1],[0.75,1],[0.5,1],[0.25,1],[0,1],[0,0.75],[0,0.5],[0,0.25]];outlineConnect=0;gradientColor=none;html=1;whiteSpace=wrap;fontSize=12;fontStyle=0;shape=mxgraph.aws4.group;grIcon=mxgraph.aws4.group_security_group;grStroke=0;strokeColor=#248814;fillColor=#E9F3E6;verticalAlign=top;align=left;spacingLeft=30;fontColor=#248814;dashed=0;" vertex="1" parent="XeVW6aaBt2hBlzPnMe3L-1">
          <mxGeometry x="1580" y="380" width="240" height="170" as="geometry" />
        </mxCell>
        <mxCell id="htYIkZqDp2M51uO-s64P-65" value="Security group" style="fillColor=none;strokeColor=#DD3522;verticalAlign=top;fontStyle=0;fontColor=#DD3522;fontSize=11;" vertex="1" parent="XeVW6aaBt2hBlzPnMe3L-1">
          <mxGeometry x="1240" y="410" width="570" height="130" as="geometry" />
        </mxCell>
        <mxCell id="htYIkZqDp2M51uO-s64P-66" value="&lt;font style=&quot;font-size: 11px&quot;&gt;Auto Scaling group&lt;/font&gt;" style="points=[[0,0],[0.25,0],[0.5,0],[0.75,0],[1,0],[1,0.25],[1,0.5],[1,0.75],[1,1],[0.75,1],[0.5,1],[0.25,1],[0,1],[0,0.75],[0,0.5],[0,0.25]];outlineConnect=0;gradientColor=none;html=1;whiteSpace=wrap;fontSize=12;fontStyle=0;shape=mxgraph.aws4.groupCenter;grIcon=mxgraph.aws4.group_auto_scaling_group;grStroke=1;strokeColor=#D86613;fillColor=none;verticalAlign=top;align=center;fontColor=#D86613;dashed=1;spacingTop=25;" vertex="1" parent="XeVW6aaBt2hBlzPnMe3L-1">
          <mxGeometry x="1350" y="440" width="350" height="90" as="geometry" />
        </mxCell>
        <mxCell id="htYIkZqDp2M51uO-s64P-67" value="&lt;font style=&quot;font-size: 11px;&quot;&gt;AutoScaling&lt;br style=&quot;font-size: 11px;&quot;&gt;Instance&lt;br style=&quot;font-size: 11px;&quot;&gt;&lt;/font&gt;" style="text;html=1;strokeColor=none;fillColor=none;align=center;verticalAlign=middle;whiteSpace=wrap;rounded=0;fontSize=11;spacingTop=-6;" vertex="1" parent="XeVW6aaBt2hBlzPnMe3L-1">
          <mxGeometry x="1364.63" y="505" width="97.25" height="30" as="geometry" />
        </mxCell>
        <mxCell id="htYIkZqDp2M51uO-s64P-68" value="" style="outlineConnect=0;fontColor=#232F3E;gradientColor=none;fillColor=#D86613;strokeColor=none;dashed=0;verticalLabelPosition=bottom;verticalAlign=top;align=center;html=1;fontSize=12;fontStyle=0;aspect=fixed;pointerEvents=1;shape=mxgraph.aws4.instance2;" vertex="1" parent="XeVW6aaBt2hBlzPnMe3L-1">
          <mxGeometry x="1385.76" y="447.5" width="55" height="55" as="geometry" />
        </mxCell>
        <mxCell id="htYIkZqDp2M51uO-s64P-69" value="&lt;font style=&quot;font-size: 11px;&quot;&gt;AutoScaling&lt;br style=&quot;font-size: 11px;&quot;&gt;Instance&lt;br style=&quot;font-size: 11px;&quot;&gt;&lt;/font&gt;" style="text;html=1;strokeColor=none;fillColor=none;align=center;verticalAlign=middle;whiteSpace=wrap;rounded=0;fontSize=11;spacingTop=-6;" vertex="1" parent="XeVW6aaBt2hBlzPnMe3L-1">
          <mxGeometry x="1580" y="505" width="97.25" height="30" as="geometry" />
        </mxCell>
        <mxCell id="htYIkZqDp2M51uO-s64P-70" value="" style="outlineConnect=0;fontColor=#232F3E;gradientColor=none;fillColor=#D86613;strokeColor=none;dashed=0;verticalLabelPosition=bottom;verticalAlign=top;align=center;html=1;fontSize=12;fontStyle=0;aspect=fixed;pointerEvents=1;shape=mxgraph.aws4.instance2;" vertex="1" parent="XeVW6aaBt2hBlzPnMe3L-1">
          <mxGeometry x="1599.25" y="447.5" width="55" height="55" as="geometry" />
        </mxCell>
        <mxCell id="htYIkZqDp2M51uO-s64P-71" value="Private subnet" style="points=[[0,0],[0.25,0],[0.5,0],[0.75,0],[1,0],[1,0.25],[1,0.5],[1,0.75],[1,1],[0.75,1],[0.5,1],[0.25,1],[0,1],[0,0.75],[0,0.5],[0,0.25]];outlineConnect=0;gradientColor=none;html=1;whiteSpace=wrap;fontSize=12;fontStyle=0;shape=mxgraph.aws4.group;grIcon=mxgraph.aws4.group_security_group;grStroke=0;strokeColor=#147EBA;fillColor=#E6F2F8;verticalAlign=top;align=left;spacingLeft=30;fontColor=#147EBA;dashed=0;" vertex="1" parent="XeVW6aaBt2hBlzPnMe3L-1">
          <mxGeometry x="1230" y="590" width="240" height="170" as="geometry" />
        </mxCell>
        <mxCell id="htYIkZqDp2M51uO-s64P-72" value="&lt;font style=&quot;font-size: 16px&quot;&gt;WAS&lt;/font&gt;" style="text;html=1;strokeColor=none;fillColor=none;align=center;verticalAlign=middle;whiteSpace=wrap;rounded=0;" vertex="1" parent="XeVW6aaBt2hBlzPnMe3L-1">
          <mxGeometry x="1273.38" y="720" width="40" height="20" as="geometry" />
        </mxCell>
        <mxCell id="htYIkZqDp2M51uO-s64P-73" value="" style="outlineConnect=0;fontColor=#232F3E;gradientColor=none;fillColor=#D86613;strokeColor=none;dashed=0;verticalLabelPosition=bottom;verticalAlign=top;align=center;html=1;fontSize=12;fontStyle=0;aspect=fixed;pointerEvents=1;shape=mxgraph.aws4.instance2;" vertex="1" parent="XeVW6aaBt2hBlzPnMe3L-1">
          <mxGeometry x="1265.88" y="660" width="55" height="55" as="geometry" />
        </mxCell>
        <mxCell id="htYIkZqDp2M51uO-s64P-74" value="Security group" style="fillColor=none;strokeColor=#DD3522;verticalAlign=top;fontStyle=0;fontColor=#DD3522;fontSize=11;" vertex="1" parent="XeVW6aaBt2hBlzPnMe3L-1">
          <mxGeometry x="1240" y="620" width="570" height="130" as="geometry" />
        </mxCell>
        <mxCell id="htYIkZqDp2M51uO-s64P-75" value="&lt;font style=&quot;font-size: 11px&quot;&gt;Auto Scaling group&lt;/font&gt;" style="points=[[0,0],[0.25,0],[0.5,0],[0.75,0],[1,0],[1,0.25],[1,0.5],[1,0.75],[1,1],[0.75,1],[0.5,1],[0.25,1],[0,1],[0,0.75],[0,0.5],[0,0.25]];outlineConnect=0;gradientColor=none;html=1;whiteSpace=wrap;fontSize=12;fontStyle=0;shape=mxgraph.aws4.groupCenter;grIcon=mxgraph.aws4.group_auto_scaling_group;grStroke=1;strokeColor=#D86613;fillColor=none;verticalAlign=top;align=center;fontColor=#D86613;dashed=1;spacingTop=25;" vertex="1" parent="XeVW6aaBt2hBlzPnMe3L-1">
          <mxGeometry x="1350" y="650" width="350" height="90" as="geometry" />
        </mxCell>
        <mxCell id="htYIkZqDp2M51uO-s64P-76" value="&lt;font style=&quot;font-size: 11px;&quot;&gt;AutoScaling&lt;br style=&quot;font-size: 11px;&quot;&gt;Instance&lt;br style=&quot;font-size: 11px;&quot;&gt;&lt;/font&gt;" style="text;html=1;strokeColor=none;fillColor=none;align=center;verticalAlign=middle;whiteSpace=wrap;rounded=0;fontSize=11;spacingTop=-6;" vertex="1" parent="XeVW6aaBt2hBlzPnMe3L-1">
          <mxGeometry x="1364.63" y="715" width="97.25" height="30" as="geometry" />
        </mxCell>
        <mxCell id="htYIkZqDp2M51uO-s64P-77" value="" style="outlineConnect=0;fontColor=#232F3E;gradientColor=none;fillColor=#D86613;strokeColor=none;dashed=0;verticalLabelPosition=bottom;verticalAlign=top;align=center;html=1;fontSize=12;fontStyle=0;aspect=fixed;pointerEvents=1;shape=mxgraph.aws4.instance2;" vertex="1" parent="XeVW6aaBt2hBlzPnMe3L-1">
          <mxGeometry x="1385.76" y="658.5" width="55" height="55" as="geometry" />
        </mxCell>
        <mxCell id="htYIkZqDp2M51uO-s64P-78" value="&lt;font style=&quot;font-size: 11px;&quot;&gt;AutoScaling&lt;br style=&quot;font-size: 11px;&quot;&gt;Instance&lt;br style=&quot;font-size: 11px;&quot;&gt;&lt;/font&gt;" style="text;html=1;strokeColor=none;fillColor=none;align=center;verticalAlign=middle;whiteSpace=wrap;rounded=0;fontSize=11;spacingTop=-6;" vertex="1" parent="XeVW6aaBt2hBlzPnMe3L-1">
          <mxGeometry x="1580" y="715" width="97.25" height="30" as="geometry" />
        </mxCell>
        <mxCell id="htYIkZqDp2M51uO-s64P-79" value="" style="outlineConnect=0;fontColor=#232F3E;gradientColor=none;fillColor=#D86613;strokeColor=none;dashed=0;verticalLabelPosition=bottom;verticalAlign=top;align=center;html=1;fontSize=12;fontStyle=0;aspect=fixed;pointerEvents=1;shape=mxgraph.aws4.instance2;" vertex="1" parent="XeVW6aaBt2hBlzPnMe3L-1">
          <mxGeometry x="1599.25" y="658.5" width="55" height="55" as="geometry" />
        </mxCell>
        <mxCell id="htYIkZqDp2M51uO-s64P-81" value="Private subnet" style="points=[[0,0],[0.25,0],[0.5,0],[0.75,0],[1,0],[1,0.25],[1,0.5],[1,0.75],[1,1],[0.75,1],[0.5,1],[0.25,1],[0,1],[0,0.75],[0,0.5],[0,0.25]];outlineConnect=0;gradientColor=none;html=1;whiteSpace=wrap;fontSize=12;fontStyle=0;shape=mxgraph.aws4.group;grIcon=mxgraph.aws4.group_security_group;grStroke=0;strokeColor=#147EBA;fillColor=#E6F2F8;verticalAlign=top;align=left;spacingLeft=30;fontColor=#147EBA;dashed=0;" vertex="1" parent="XeVW6aaBt2hBlzPnMe3L-1">
          <mxGeometry x="1230" y="800" width="240" height="170" as="geometry" />
        </mxCell>
        <mxCell id="htYIkZqDp2M51uO-s64P-82" value="Security group" style="fillColor=none;strokeColor=#DD3522;verticalAlign=top;fontStyle=0;fontColor=#DD3522;fontSize=11;" vertex="1" parent="XeVW6aaBt2hBlzPnMe3L-1">
          <mxGeometry x="1240" y="830" width="220" height="130" as="geometry" />
        </mxCell>
        <mxCell id="htYIkZqDp2M51uO-s64P-87" value="" style="outlineConnect=0;fontColor=#232F3E;gradientColor=none;fillColor=#5A30B5;strokeColor=none;dashed=0;verticalLabelPosition=bottom;verticalAlign=top;align=center;html=1;fontSize=12;fontStyle=0;aspect=fixed;pointerEvents=1;shape=mxgraph.aws4.internet_gateway;" vertex="1" parent="XeVW6aaBt2hBlzPnMe3L-1">
          <mxGeometry x="1493" y="82" width="55" height="55" as="geometry" />
        </mxCell>
        <mxCell id="htYIkZqDp2M51uO-s64P-88" value="" style="outlineConnect=0;fontColor=#232F3E;gradientColor=none;fillColor=#5A30B5;strokeColor=none;dashed=0;verticalLabelPosition=bottom;verticalAlign=top;align=center;html=1;fontSize=12;fontStyle=0;aspect=fixed;pointerEvents=1;shape=mxgraph.aws4.application_load_balancer;" vertex="1" parent="XeVW6aaBt2hBlzPnMe3L-1">
          <mxGeometry x="1492.5" y="190" width="55" height="55" as="geometry" />
        </mxCell>
        <mxCell id="htYIkZqDp2M51uO-s64P-89" value="&lt;font size=&quot;3&quot;&gt;Read Only&lt;/font&gt;" style="text;html=1;strokeColor=none;fillColor=none;align=center;verticalAlign=middle;whiteSpace=wrap;rounded=0;" vertex="1" parent="XeVW6aaBt2hBlzPnMe3L-1">
          <mxGeometry x="1302.5" y="930" width="95" height="20" as="geometry" />
        </mxCell>
        <mxCell id="htYIkZqDp2M51uO-s64P-90" value="" style="outlineConnect=0;fontColor=#232F3E;gradientColor=none;fillColor=#3334B9;strokeColor=none;dashed=0;verticalLabelPosition=bottom;verticalAlign=top;align=center;html=1;fontSize=12;fontStyle=0;aspect=fixed;pointerEvents=1;shape=mxgraph.aws4.rds_instance;" vertex="1" parent="XeVW6aaBt2hBlzPnMe3L-1">
          <mxGeometry x="1320.88" y="867.505" width="55" height="55" as="geometry" />
        </mxCell>
        <mxCell id="htYIkZqDp2M51uO-s64P-94" value="" style="outlineConnect=0;fontColor=#232F3E;gradientColor=none;fillColor=#277116;strokeColor=none;dashed=0;verticalLabelPosition=bottom;verticalAlign=top;align=center;html=1;fontSize=12;fontStyle=0;aspect=fixed;pointerEvents=1;shape=mxgraph.aws4.bucket_with_objects;" vertex="1" parent="XeVW6aaBt2hBlzPnMe3L-1">
          <mxGeometry x="1492.5" y="1000" width="55" height="57.2" as="geometry" />
        </mxCell>
        <mxCell id="htYIkZqDp2M51uO-s64P-95" value="&lt;font size=&quot;3&quot;&gt;S3&lt;/font&gt;" style="text;html=1;strokeColor=none;fillColor=none;align=center;verticalAlign=middle;whiteSpace=wrap;rounded=0;" vertex="1" parent="XeVW6aaBt2hBlzPnMe3L-1">
          <mxGeometry x="1472.5" y="1069" width="95" height="20" as="geometry" />
        </mxCell>
        <mxCell id="htYIkZqDp2M51uO-s64P-104" style="edgeStyle=orthogonalEdgeStyle;rounded=0;orthogonalLoop=1;jettySize=auto;html=1;entryX=0.5;entryY=1;entryDx=0;entryDy=0;fontSize=11;strokeWidth=2;" edge="1" parent="XeVW6aaBt2hBlzPnMe3L-1" source="htYIkZqDp2M51uO-s64P-41" target="htYIkZqDp2M51uO-s64P-89">
          <mxGeometry relative="1" as="geometry">
            <Array as="points">
              <mxPoint x="553" y="990" />
              <mxPoint x="1350" y="990" />
            </Array>
          </mxGeometry>
        </mxCell>
        <mxCell id="htYIkZqDp2M51uO-s64P-107" value="&lt;font style=&quot;font-size: 11px;&quot;&gt;Cloud&lt;br style=&quot;font-size: 11px;&quot;&gt;Watch&lt;/font&gt;" style="text;html=1;strokeColor=none;fillColor=none;align=center;verticalAlign=middle;whiteSpace=wrap;rounded=0;fontSize=11;" vertex="1" parent="XeVW6aaBt2hBlzPnMe3L-1">
          <mxGeometry x="270" y="510" width="95" height="20" as="geometry" />
        </mxCell>
        <mxCell id="htYIkZqDp2M51uO-s64P-108" value="&lt;font style=&quot;font-size: 11px&quot;&gt;Internet&lt;br&gt;Gateway&lt;br style=&quot;font-size: 11px&quot;&gt;&lt;/font&gt;" style="text;html=1;strokeColor=none;fillColor=none;align=center;verticalAlign=middle;whiteSpace=wrap;rounded=0;fontSize=11;spacingTop=-6;" vertex="1" parent="XeVW6aaBt2hBlzPnMe3L-1">
          <mxGeometry x="621.375" y="137" width="97.25" height="30" as="geometry" />
        </mxCell>
        <mxCell id="htYIkZqDp2M51uO-s64P-109" value="&lt;font style=&quot;font-size: 12px;&quot;&gt;ELB&lt;br style=&quot;font-size: 12px;&quot;&gt;&lt;/font&gt;" style="text;html=1;strokeColor=none;fillColor=none;align=center;verticalAlign=middle;whiteSpace=wrap;rounded=0;fontSize=12;spacingTop=-6;" vertex="1" parent="XeVW6aaBt2hBlzPnMe3L-1">
          <mxGeometry x="621.375" y="245" width="97.25" height="30" as="geometry" />
        </mxCell>
      </root>
    </mxGraphModel>
  </diagram>
</mxfile>
